<svg width="41" height="42" viewBox="0 0 41 42" fill="none" xmlns="http://www.w3.org/2000/svg">
<path d="M1.05447 40.891C-0.312368 39.5241 -0.312368 37.3081 1.05447 35.9412L34.9956 2.0001C36.3624 0.633267 38.5785 0.633267 39.9453 2.0001C41.3122 3.36694 41.3122 5.58301 39.9453 6.94985L6.00421 40.891C4.63738 42.2578 2.4213 42.2578 1.05447 40.891Z" fill="#2C478B"/>
<path d="M39.9453 40.891C41.3121 39.5242 41.3121 37.3081 39.9453 35.9413L6.00417 2.00013C4.63734 0.633297 2.42126 0.633297 1.05442 2.00013C-0.312412 3.36697 -0.312412 5.58304 1.05442 6.94988L34.9955 40.891C36.3624 42.2578 38.5785 42.2578 39.9453 40.891Z" fill="#2C478B"/>
</svg>
