<svg width="281" height="279" viewBox="0 0 281 279" fill="none" xmlns="http://www.w3.org/2000/svg">
<path fill-rule="evenodd" clip-rule="evenodd" d="M95.4037 0H185.081V94.6871H280.485V183.694H185.081V278.381H95.4037V183.694H0V94.6871H95.4037V0Z" fill="#DF0017"/>
<path fill-rule="evenodd" clip-rule="evenodd" d="M124.866 111.182H155.621V58.5568C155.621 52.7804 160.371 48.0665 166.191 48.0665H207.027C212.854 48.0665 217.597 52.7804 217.597 58.5568V219.825C217.597 225.607 212.854 230.315 207.027 230.315H166.191C160.371 230.315 155.621 225.607 155.621 219.825V164.883H124.866V219.825C124.866 225.607 120.116 230.315 114.296 230.315H73.46C67.6379 230.315 62.8882 225.607 62.8882 219.825V58.5568C62.8882 52.7804 67.6379 48.0665 73.46 48.0665H114.296C120.116 48.0665 124.866 52.7804 124.866 58.5568V111.182Z" fill="white"/>
<path fill-rule="evenodd" clip-rule="evenodd" d="M73.4592 58.5566V219.824H114.295V154.392H166.19V219.824H207.026V58.5566H166.19V121.672H114.295V58.5566H73.4592Z" fill="#2C478B"/>
</svg>
