<svg width="1176" height="279" viewBox="0 0 1176 279" fill="none" xmlns="http://www.w3.org/2000/svg">
<path fill-rule="evenodd" clip-rule="evenodd" d="M95.4037 0H185.081V94.6871H280.485V183.694H185.081V278.381H95.4037V183.694H0V94.6871H95.4037V0Z" fill="#DF0017"/>
<path fill-rule="evenodd" clip-rule="evenodd" d="M124.866 111.182H155.621V58.5568C155.621 52.7804 160.371 48.0665 166.191 48.0665H207.027C212.854 48.0665 217.597 52.7804 217.597 58.5568V219.825C217.597 225.607 212.854 230.315 207.027 230.315H166.191C160.371 230.315 155.621 225.607 155.621 219.825V164.883H124.866V219.825C124.866 225.607 120.116 230.315 114.296 230.315H73.46C67.6379 230.315 62.8882 225.607 62.8882 219.825V58.5568C62.8882 52.7804 67.6379 48.0665 73.46 48.0665H114.296C120.116 48.0665 124.866 52.7804 124.866 58.5568V111.182Z" fill="white"/>
<path fill-rule="evenodd" clip-rule="evenodd" d="M73.4592 58.5566V219.824H114.295V154.392H166.19V219.824H207.026V58.5566H166.19V121.672H114.295V58.5566H73.4592Z" fill="#2C478B"/>
<path fill-rule="evenodd" clip-rule="evenodd" d="M360.801 68.3003V180.823H389.291V135.166H425.503V180.823H453.992V68.3003H425.503V112.339H389.291V68.3003H360.801ZM533.233 66.0913C516.318 66.0913 501.772 71.6893 490.648 82.736C479.811 93.4854 474.028 107.921 474.028 124.566C474.028 141.204 479.811 155.491 490.793 166.388C501.772 177.293 516.467 183.032 533.233 183.032C550.153 183.032 564.692 177.293 575.678 166.388C586.66 155.491 592.443 141.204 592.443 124.566C592.443 107.921 586.66 93.4854 575.678 82.736C564.548 71.6893 550.304 66.0913 533.233 66.0913ZM533.233 157.849C515.723 157.849 502.817 144.301 502.817 124.566C502.817 104.829 515.573 91.2824 533.233 91.2824C550.892 91.2824 563.509 104.829 563.509 124.566C563.509 144.301 550.892 157.849 533.233 157.849ZM647.946 159.617H638.742V131.485H645.57C656.401 131.485 662.192 136.344 662.192 145.479C662.192 154.019 656.851 159.617 647.946 159.617ZM645.57 114.989H638.742V88.1846H643.194C655.069 88.1846 660.559 91.4242 660.559 101.59C660.559 110.278 655.363 114.989 645.57 114.989ZM612.478 68.3003V180.823H651.805C677.031 180.823 690.236 169.187 690.236 147.831C690.236 135.022 683.859 126.185 672.728 122.796C682.521 118.086 687.717 109.54 687.717 98.4934C687.717 80.2343 674.954 68.3003 653.882 68.3003H612.478ZM763.399 66.0913C746.479 66.0913 731.94 71.6893 720.809 82.736C709.972 93.4854 704.189 107.921 704.189 124.566C704.189 141.204 709.972 155.491 720.958 166.388C731.94 177.293 746.628 183.032 763.399 183.032C780.314 183.032 794.859 177.293 805.839 166.388C816.821 155.491 822.604 141.204 822.604 124.566C822.604 107.921 816.821 93.4854 805.839 82.736C794.709 71.6893 780.465 66.0913 763.399 66.0913ZM763.399 157.849C745.884 157.849 732.978 144.301 732.978 124.566C732.978 104.829 745.74 91.2824 763.399 91.2824C781.057 91.2824 793.67 104.829 793.67 124.566C793.67 144.301 781.057 157.849 763.399 157.849ZM942.216 123.678V180.823H968.334V68.3003H934.649L905.416 130.014L877.663 68.3003H842.639V180.823H868.759V123.678C868.759 119.116 868.015 111.017 866.382 99.8213C869.203 108.362 872.617 114.697 874.694 119.116L905.265 182.883L936.131 119.116C938.801 113.667 941.915 107.48 944.442 99.8213C942.809 111.017 942.216 119.116 942.216 123.678ZM993.855 68.3003V180.823H1057.37V157.997H1022.35V134.873H1057.37V113.077H1022.35V90.1025H1057.37V68.3003H993.855ZM1150.26 181.121V202.917H1175.94V158.437H1163.92V68.8903H1102.33C1099.22 84.945 1096.84 96.2844 1093.28 111.898C1089.28 127.656 1086.16 142.823 1080.22 158.587H1072.51V202.917H1098.33V181.121C1115.69 181.121 1132.76 181.121 1150.26 181.121ZM1135.43 158.437H1107.82C1111.09 147.243 1114.2 134.873 1117.17 122.945C1119.84 112.19 1121.18 102.03 1123.85 91.4242H1135.43V158.437Z" fill="white"/>
<path fill-rule="evenodd" clip-rule="evenodd" d="M386.153 239.63L376.557 219.658H360.801V261.695H373.515V247.759L373.125 241.566L372.97 238.624L386.074 264.404L399.412 238.78L399.1 241.643L398.945 247.605L398.789 261.695H411.816V219.658H396.526L396.137 220.043L386.153 239.63ZM461.816 250.236L448.633 247.681C447.151 250.546 444.188 252.095 440.443 252.095C435.217 252.095 431.785 248.998 431.317 243.811H462.831V242.804C462.831 227.709 454.172 218.961 439.819 218.961C426.168 218.961 417.12 227.94 417.12 241.024C417.12 253.798 426.246 262.545 440.288 262.545C450.506 262.545 458.306 257.978 461.816 250.236ZM449.023 237.462H431.16C431.55 232.276 434.983 229.024 439.897 229.024C444.968 229.024 448.321 232.121 449.023 237.462ZM510.96 250.624H505.342C505.342 240.327 505.342 230.264 505.342 220.121C496.295 220.121 487.324 220.121 478.432 220.121C477.028 231.811 472.816 243.811 470.553 250.624H466.731V270.83H479.679V261.461H498.089V270.83L510.96 270.752V250.624ZM492.395 250.546H483.579C485.53 246.831 487.636 237.153 488.728 230.264H492.395V250.546ZM544.345 219.658L533.892 236.999L532.566 239.321L530.851 243.347L531.241 241.72L531.553 236.379V219.658H518.135V261.695H531.553L544.033 241.72L546.061 237.696L545.671 239.708L545.047 246.366V261.695H558.463V219.658H544.345ZM580.773 250.701V219.734H567.2V261.695H598.713V271.295H611.194V250.624H605.656V219.812H591.927V250.701H580.773ZM644.581 219.658L634.128 236.999L632.802 239.321L631.086 243.347L631.476 241.72L631.788 236.379V219.658H618.371V261.695H631.788L644.269 241.72L646.297 237.696L645.906 239.708L645.283 246.366V261.695H658.699V219.658H644.581ZM680.852 235.141V219.812H667.124V261.849H680.931V246.212H692.086V261.849H705.814V219.889H691.929V235.141H680.852ZM753.474 255.424L745.128 246.443C743.256 249.462 740.291 251.166 736.938 251.166C731.555 251.166 727.344 246.985 727.344 240.792C727.344 234.598 731.555 230.34 736.938 230.34C739.668 230.34 742.399 231.579 744.505 233.979L752.617 225.076C747.78 220.664 742.242 218.961 736.079 218.961C722.585 218.961 713.536 227.863 713.536 240.792C713.536 253.72 722.585 262.545 736.079 262.545C743.101 262.545 748.638 260.301 753.474 255.424ZM761.197 219.967V261.539H774.849V242.185L786.002 261.539H802.383L786.704 239.165L800.745 219.967H785.067L774.849 237.308V219.967H761.197ZM836.705 219.658L826.252 236.999L824.926 239.321L823.211 243.347L823.601 241.72L823.913 236.379V219.658H810.497V261.695H823.913L836.393 241.72L838.421 237.696L838.031 239.708L837.407 246.366V261.695H850.823V219.658H836.705ZM886.004 219.658L875.551 236.999L874.226 239.321L872.51 243.347L872.9 241.72L873.212 236.379V219.658H859.794V261.695H873.212L885.693 241.72L887.72 237.696L887.33 239.708L886.706 246.366V261.695H900.122V219.658H886.004ZM871.651 202.005H866.659C867.206 209.902 871.106 213.619 878.671 213.619C886.316 213.619 889.983 209.98 890.606 202.005H885.614C885.457 205.566 883.196 207.271 878.671 207.271C874.226 207.271 871.963 205.644 871.651 202.005Z" fill="white"/>
<path fill-rule="evenodd" clip-rule="evenodd" d="M955.968 250.701V219.734H942.396V261.695H973.908V271.294H986.389V250.624H980.851V219.812H967.122V250.701H955.968ZM1035.38 250.236L1022.19 247.681C1020.71 250.546 1017.75 252.095 1014 252.095C1008.78 252.095 1005.34 248.998 1004.88 243.81H1036.39V242.804C1036.39 227.709 1027.73 218.961 1013.38 218.961C999.728 218.961 990.679 227.94 990.679 241.024C990.679 253.798 999.807 262.545 1013.85 262.545C1024.07 262.545 1031.87 257.978 1035.38 250.236ZM1022.58 237.462H1004.72C1005.11 232.276 1008.54 229.024 1013.46 229.024C1018.53 229.024 1021.88 232.12 1022.58 237.462ZM1058.23 235.141V219.812H1044.5V261.849H1058.31V246.212H1069.46V261.849H1083.19V219.889H1069.31V235.141H1058.23ZM1124.07 230.727V219.889H1089.12V230.727H1099.57L1099.89 230.96V261.617H1113.69V230.727H1124.07ZM1153.32 229.567C1158.16 229.567 1162.13 233.901 1162.13 240.714C1162.13 247.527 1158.16 252.017 1153.32 252.017C1148.56 252.017 1144.5 247.527 1144.5 240.714C1144.5 233.901 1148.56 229.567 1153.32 229.567ZM1144.82 225.618V219.967H1131.32V276.946H1144.43V255.734C1145.99 259.681 1150.51 262.314 1156.44 262.314C1161.82 262.314 1166.89 260.068 1170.71 255.965C1174.3 252.017 1175.94 247.062 1175.94 240.714C1175.94 234.598 1173.91 229.334 1170.25 225.463C1166.42 221.438 1161.43 219.27 1155.97 219.27C1150.36 219.27 1146.38 221.592 1144.82 225.618Z" fill="white"/>
</svg>
