<svg width="32" height="32" viewBox="0 0 32 32" fill="none" xmlns="http://www.w3.org/2000/svg">
<path d="M15.8797 0C7.24335 0 0.234131 7.00922 0.234131 15.6456C0.234131 24.2819 7.24335 31.2912 15.8797 31.2912C24.5161 31.2912 31.5253 24.2819 31.5253 15.6456C31.5253 7.00922 24.5161 0 15.8797 0ZM23.1393 10.639C22.9046 13.111 21.8876 19.1189 21.3713 21.8882C21.1523 23.0616 20.7142 23.4527 20.3074 23.4997C19.4 23.5779 18.7116 22.9051 17.8354 22.3262C16.4586 21.4188 15.6763 20.8556 14.3464 19.9794C12.7975 18.9624 13.7988 18.3992 14.6906 17.4918C14.9253 17.2571 18.9306 13.6117 19.0088 13.2831C19.0197 13.2333 19.0182 13.1817 19.0046 13.1326C18.991 13.0835 18.9656 13.0385 18.9306 13.0015C18.8367 12.9232 18.7116 12.9545 18.602 12.9702C18.4612 13.0015 16.2708 14.4565 11.9996 17.3353C11.3738 17.7577 10.8105 17.9768 10.3099 17.9611C9.74664 17.9455 8.68274 17.6482 7.88482 17.3822C6.89915 17.0693 6.13251 16.8972 6.1951 16.3496C6.22639 16.068 6.61753 15.7864 7.35287 15.4891C11.9214 13.5021 14.9566 12.1879 16.4742 11.5621C20.8237 9.74719 21.7155 9.43428 22.31 9.43428C22.4352 9.43428 22.7325 9.46557 22.9202 9.62203C23.0767 9.74719 23.1236 9.9193 23.1393 10.0445C23.1236 10.1383 23.1549 10.42 23.1393 10.639Z" fill="#2C478B"/>
</svg>
