<svg width="32" height="32" viewBox="0 0 32 32" fill="none" xmlns="http://www.w3.org/2000/svg">
<path d="M15.9715 0C24.7926 0 31.943 7.15045 31.943 15.9715C31.943 24.7926 24.7926 31.943 15.9715 31.943C13.149 31.9476 10.3762 31.2006 7.93786 29.7789L0.00641107 31.943L2.16576 24.0084C0.742846 21.5693 -0.00469303 18.7953 2.21689e-05 15.9715C2.21689e-05 7.15045 7.15047 0 15.9715 0ZM10.5284 8.4649L10.209 8.47768C10.0022 8.49027 9.80011 8.5446 9.61487 8.63739C9.44162 8.73551 9.28346 8.85816 9.14531 9.00155C8.95365 9.18202 8.84505 9.33854 8.72845 9.49027C8.1377 10.2583 7.81963 11.2013 7.82447 12.1703C7.82766 12.9529 8.0321 13.7147 8.35153 14.4271C9.00476 15.8677 10.0796 17.393 11.4979 18.8065C11.8397 19.1467 12.1751 19.4884 12.5361 19.8063C14.2983 21.3578 16.3984 22.4768 18.6691 23.074L19.5763 23.213C19.8718 23.229 20.1673 23.2066 20.4643 23.1922C20.9295 23.1682 21.3837 23.0423 21.7948 22.8233C22.0039 22.7156 22.208 22.5983 22.4065 22.4719C22.4065 22.4719 22.4751 22.4272 22.6061 22.3282C22.8217 22.1685 22.9543 22.0551 23.1332 21.8682C23.2657 21.7308 23.3807 21.5695 23.4686 21.3859C23.5931 21.1255 23.7177 20.6288 23.7688 20.2151C23.8072 19.8989 23.796 19.7264 23.7912 19.6194C23.7848 19.4485 23.6427 19.2712 23.4877 19.1962L22.5582 18.7793C22.5582 18.7793 21.1687 18.174 20.319 17.7875C20.2301 17.7487 20.1348 17.7265 20.0379 17.722C19.9286 17.7108 19.8182 17.7231 19.7141 17.7581C19.6099 17.793 19.5145 17.8499 19.4342 17.9248C19.4262 17.9216 19.3192 18.0127 18.1644 19.4118C18.0981 19.5008 18.0069 19.5681 17.9022 19.6051C17.7975 19.6421 17.6842 19.6471 17.5767 19.6194C17.4726 19.5915 17.3707 19.5563 17.2716 19.514C17.0736 19.4309 17.0049 19.399 16.8691 19.3415C15.9525 18.9415 15.1038 18.401 14.3536 17.7396C14.1524 17.5639 13.9655 17.3722 13.7739 17.1869C13.1455 16.5852 12.5979 15.9044 12.1448 15.1618L12.0505 15.01C11.9828 14.9081 11.9281 14.7981 11.8876 14.6826C11.8269 14.4478 11.985 14.2594 11.985 14.2594C11.985 14.2594 12.3732 13.8345 12.5536 13.6045C12.7293 13.3809 12.8779 13.1637 12.9737 13.0088C13.1621 12.7053 13.2212 12.3939 13.1222 12.1527C12.675 11.0603 12.2118 9.97261 11.7359 8.89294C11.6417 8.67892 11.3622 8.52559 11.1082 8.49525C11.022 8.48567 10.9357 8.47608 10.8495 8.46969C10.635 8.45904 10.4201 8.46117 10.2058 8.47608L10.5268 8.4633L10.5284 8.4649Z" fill="white"/>
</svg>
