<svg width="33" height="32" viewBox="0 0 33 32" fill="none" xmlns="http://www.w3.org/2000/svg">
<path d="M16.5887 0C7.94777 0 0.943115 7.00466 0.943115 15.6456C0.943115 24.2865 7.94777 31.2912 16.5887 31.2912C25.2296 31.2912 32.2343 24.2865 32.2343 15.6456C32.2343 7.00466 25.2296 0 16.5887 0ZM22.6057 17.6518C22.6057 17.6518 23.9894 19.0175 24.33 19.6515C24.3398 19.6645 24.3447 19.6776 24.3479 19.6841C24.4864 19.9171 24.519 20.098 24.4506 20.2333C24.3365 20.4582 23.9454 20.569 23.8117 20.5788H21.3671C21.1976 20.5788 20.8423 20.5348 20.4121 20.2382C20.0812 20.0068 19.7553 19.627 19.4375 19.2571C18.9632 18.7062 18.5525 18.2304 18.1386 18.2304C18.086 18.2303 18.0337 18.2385 17.9838 18.2548C17.6708 18.3558 17.2699 18.8024 17.2699 19.9921C17.2699 20.3637 16.9766 20.5772 16.7696 20.5772H15.65C15.2686 20.5772 13.2819 20.4436 11.5218 18.5873C9.36728 16.3138 7.42788 11.7537 7.41158 11.7114C7.28935 11.4164 7.54196 11.2583 7.81739 11.2583H10.2865C10.6157 11.2583 10.7232 11.4588 10.7982 11.6364C10.8862 11.8434 11.2089 12.6664 11.7386 13.5921C12.5974 15.1012 13.1238 15.714 13.546 15.714C13.6251 15.7131 13.7028 15.693 13.7725 15.6554C14.3233 15.349 14.2207 13.3851 14.1962 12.9777C14.1962 12.9011 14.1946 12.0992 13.9126 11.7146C13.7106 11.4359 13.3667 11.33 13.1581 11.2909C13.2425 11.1744 13.3537 11.0799 13.4824 11.0155C13.8605 10.8264 14.5417 10.7987 15.2181 10.7987H15.5945C16.3279 10.8085 16.517 10.8557 16.7826 10.9226C17.3204 11.0513 17.3319 11.3985 17.2846 12.5865C17.2699 12.9239 17.2553 13.3053 17.2553 13.7551C17.2553 13.8529 17.2504 13.9572 17.2504 14.068C17.2341 14.6726 17.2145 15.3587 17.6415 15.6407C17.6972 15.6756 17.7616 15.6942 17.8273 15.6945C17.9756 15.6945 18.4222 15.6945 19.6314 13.6198C20.0044 12.952 20.3285 12.2581 20.6011 11.5435C20.6256 11.5011 20.6973 11.3707 20.782 11.3202C20.8446 11.2883 20.9139 11.2721 20.9841 11.273H23.8867C24.2029 11.273 24.4196 11.3202 24.4604 11.4425C24.5321 11.6364 24.4473 12.228 23.1223 14.0223L22.5308 14.803C21.3296 16.3773 21.3296 16.4572 22.6057 17.6518Z" fill="white"/>
</svg>
