<svg width="45" height="45" viewBox="0 0 45 45" fill="none" xmlns="http://www.w3.org/2000/svg">
<g clip-path="url(#clip0_1162_16)">
<path d="M0 22.5V45H22.5H45V22.5V1.00583e-06H22.5H0V22.5ZM29.22 8.48C29.26 8.58 29.26 36.57 29.22 36.67C29.195 36.74 28.99 36.75 27.47 36.75C26.135 36.75 25.74 36.735 25.725 36.685C25.71 36.655 25.695 34.26 25.69 31.375L25.675 26.125L24.425 26.11C23.74 26.1 23.085 26.11 22.97 26.125L22.765 26.155L22.475 26.815C22.315 27.18 22.085 27.7 21.96 27.975C21.665 28.65 21.655 28.665 21.27 29.55C21.085 29.975 20.91 30.355 20.88 30.39C20.855 30.43 20.825 30.5 20.815 30.545C20.795 30.685 20.295 31.775 20.245 31.79C20.22 31.8 20.21 31.825 20.225 31.845C20.235 31.87 20.005 32.435 19.705 33.105C19.41 33.775 18.98 34.75 18.75 35.275C18.52 35.795 18.275 36.335 18.205 36.475L18.075 36.725L16.105 36.74C14.61 36.75 14.125 36.735 14.095 36.69C14.075 36.66 14.09 36.565 14.13 36.485C14.175 36.405 14.195 36.31 14.18 36.27C14.165 36.23 14.17 36.205 14.195 36.22C14.215 36.235 14.265 36.185 14.3 36.11C14.355 35.985 15.44 33.58 16.785 30.6C17.265 29.54 17.885 28.175 18.7 26.375C19.05 25.605 19.2 25.26 19.2 25.235C19.2 25.22 19.08 25.135 18.94 25.045C18.795 24.95 18.45 24.695 18.175 24.475C17.9 24.255 17.655 24.085 17.625 24.095C17.6 24.1 17.59 24.095 17.61 24.075C17.63 24.055 17.485 23.855 17.295 23.63C15.855 21.975 15.3 20.23 15.3 17.425C15.3 16.38 15.355 15.82 15.525 14.98C15.65 14.355 15.88 13.585 15.955 13.56C15.975 13.55 15.985 13.515 15.97 13.485C15.93 13.38 16.63 12.05 16.97 11.58C17.145 11.335 17.46 10.96 17.67 10.75C17.88 10.54 18.04 10.35 18.025 10.335C18.01 10.315 18.015 10.31 18.03 10.325C18.075 10.355 18.325 10.155 18.325 10.09C18.325 10.06 18.36 10.03 18.4 10.025C18.44 10.015 18.635 9.905 18.825 9.775C19.545 9.29 20.415 8.91 21.34 8.68C21.855 8.55 22.625 8.43 22.72 8.465C22.75 8.475 22.82 8.47 22.875 8.445C22.93 8.425 24.375 8.405 26.08 8.405C28.87 8.4 29.19 8.41 29.22 8.48Z" fill="#EC4040"/>
<path d="M22.6999 11.56C22.6999 11.58 22.6349 11.6 22.5599 11.6C22.3999 11.6 21.9249 11.755 21.5999 11.915C20.9749 12.22 20.4099 12.73 20.0999 13.27C20.0149 13.425 19.9099 13.585 19.8699 13.625C19.8249 13.665 19.8049 13.7 19.8149 13.7C19.8299 13.7 19.7399 13.94 19.6199 14.235C19.4999 14.535 19.3999 14.815 19.3999 14.86C19.3999 14.91 19.3849 14.95 19.3649 14.95C19.3399 14.95 19.3249 15.015 19.3199 15.095C19.3149 15.175 19.2999 15.28 19.2749 15.33C19.2549 15.385 19.2299 15.535 19.2199 15.665C19.2099 15.8 19.1799 15.945 19.1549 15.99C19.0799 16.135 19.1299 18.825 19.2149 19.25C19.2949 19.66 19.4099 20.095 19.4949 20.315C19.5249 20.395 19.5399 20.475 19.5249 20.5C19.5099 20.525 19.5199 20.55 19.5399 20.56C19.5599 20.565 19.6649 20.745 19.7699 20.95C20.2649 21.935 21.0349 22.58 21.9999 22.83C22.1799 22.875 22.3499 22.93 22.3749 22.95C22.4049 22.97 23.1499 22.99 24.0399 22.995L25.6499 23.005V17.25V11.495L24.1749 11.505C23.3649 11.51 22.6999 11.535 22.6999 11.56Z" fill="#EC4040"/>
<path d="M15.3701 17.4251C15.3701 17.7801 15.3751 17.9201 15.3851 17.7351C15.3951 17.5501 15.3951 17.2551 15.3851 17.0851C15.3751 16.9151 15.3701 17.0651 15.3701 17.4251Z" fill="#ECC1C1"/>
<path d="M19.0103 18.3C19.0103 18.395 19.0203 18.435 19.0353 18.385C19.0453 18.34 19.0453 18.26 19.0353 18.21C19.0203 18.165 19.0103 18.205 19.0103 18.3Z" fill="#ECC1C1"/>
<path d="M20.4003 22.01C20.5203 22.145 20.6253 22.25 20.6353 22.25C20.6753 22.25 20.6353 22.205 20.4153 22L20.1753 21.775L20.4003 22.01Z" fill="#ECC1C1"/>
<path d="M17.6501 23.925C17.7451 24.02 17.8301 24.1 17.8451 24.1C17.8601 24.1 17.7951 24.02 17.7001 23.925C17.6051 23.83 17.5201 23.75 17.5051 23.75C17.4901 23.75 17.5551 23.83 17.6501 23.925Z" fill="#ECC1C1"/>
<path d="M23.6654 26.035C24.0404 26.045 24.6604 26.045 25.0404 26.035C25.4154 26.03 25.1054 26.02 24.3504 26.02C23.5954 26.02 23.2854 26.03 23.6654 26.035Z" fill="#ECC1C1"/>
<path d="M25.7754 31.4V36.675H27.4504H29.1254L27.4654 36.665L25.8004 36.65L25.7854 31.385L25.7754 26.125V31.4Z" fill="#ECC1C1"/>
<path d="M15.1152 36.685C15.6552 36.695 16.5452 36.695 17.0902 36.685C17.6302 36.68 17.1852 36.675 16.1002 36.675C15.0152 36.675 14.5702 36.68 15.1152 36.685Z" fill="#ECC1C1"/>
</g>
<defs>
<clipPath id="clip0_1162_16">
<rect width="45" height="45" fill="white"/>
</clipPath>
</defs>
</svg>
